<svg width="17" height="17" viewBox="0 0 17 17" fill="none" xmlns="http://www.w3.org/2000/svg">
<path d="M13.0816 15.9375C12.9698 15.938 12.8607 15.9031 12.7698 15.8379L8.49958 12.7421L4.22933 15.8379C4.1381 15.9041 4.02818 15.9395 3.91548 15.9391C3.80278 15.9387 3.69313 15.9025 3.60238 15.8356C3.51164 15.7688 3.44449 15.6748 3.41066 15.5673C3.37683 15.4598 3.37807 15.3444 3.41419 15.2376L5.07966 10.3046L0.763252 7.34455C0.669756 7.28051 0.599191 7.18824 0.561866 7.08123C0.524541 6.97423 0.522414 6.85809 0.555794 6.74979C0.589175 6.64149 0.656314 6.5467 0.747402 6.47927C0.838489 6.41185 0.948753 6.37532 1.06208 6.37502H6.3872L7.99423 1.42941C8.02885 1.32264 8.0964 1.22957 8.18719 1.16357C8.27797 1.09756 8.38733 1.06201 8.49958 1.06201C8.61183 1.06201 8.72119 1.09756 8.81198 1.16357C8.90277 1.22957 8.97031 1.32264 9.00493 1.42941L10.612 6.37668H15.9371C16.0506 6.37662 16.1611 6.4129 16.2524 6.4802C16.3438 6.54749 16.4112 6.64227 16.4448 6.75066C16.4784 6.85904 16.4764 6.97533 16.4391 7.0825C16.4018 7.18967 16.3312 7.28208 16.2376 7.34621L11.9195 10.3046L13.584 15.2363C13.6109 15.3161 13.6185 15.4012 13.6061 15.4846C13.5937 15.5679 13.5616 15.6471 13.5125 15.7157C13.4634 15.7842 13.3988 15.84 13.3238 15.8786C13.2489 15.9172 13.1659 15.9374 13.0816 15.9375Z" fill="#DCDCDC"/>
</svg>
