<svg width="40" height="40" viewBox="0 0 40 40" fill="none" xmlns="http://www.w3.org/2000/svg">
<path fill-rule="evenodd" clip-rule="evenodd" d="M25.8134 7.3833C25.9381 7.49018 26.0406 7.62059 26.1148 7.76707C26.1891 7.91355 26.2338 8.07323 26.2463 8.23699C26.2589 8.40075 26.239 8.56537 26.1879 8.72146C26.1368 8.87754 26.0554 9.02202 25.9484 9.14663L16.6468 20L25.9484 30.8533C26.0616 30.9769 26.1488 31.122 26.2048 31.2799C26.2607 31.4379 26.2844 31.6054 26.2743 31.7727C26.2642 31.94 26.2206 32.1035 26.1461 32.2536C26.0715 32.4037 25.9675 32.5372 25.8403 32.6463C25.7131 32.7554 25.5653 32.8378 25.4056 32.8886C25.2459 32.9394 25.0777 32.9576 24.9108 32.9421C24.7439 32.9266 24.5819 32.8777 24.4343 32.7983C24.2868 32.7189 24.1567 32.6106 24.0518 32.48L14.0518 20.8133C13.8577 20.5868 13.751 20.2983 13.751 20C13.751 19.7016 13.8577 19.4132 14.0518 19.1866L24.0518 7.51997C24.2676 7.26861 24.5743 7.1132 24.9047 7.08789C25.235 7.06257 25.5618 7.16942 25.8134 7.38497" fill="#BDBDBD"/>
</svg>
