<svg width="16" height="16" viewBox="0 0 16 16" fill="none" xmlns="http://www.w3.org/2000/svg">
<path d="M6.10208 3.60525C6.94674 2.09059 7.36874 1.33325 8.00007 1.33325C8.63141 1.33325 9.05341 2.09059 9.89807 3.60525L10.1167 3.99725C10.3567 4.42792 10.4767 4.64325 10.6634 4.78525C10.8501 4.92725 11.0834 4.97992 11.5501 5.08525L11.9741 5.18125C13.6141 5.55259 14.4334 5.73792 14.6287 6.36525C14.8234 6.99192 14.2647 7.64592 13.1467 8.95325L12.8574 9.29125C12.5401 9.66259 12.3807 9.84859 12.3094 10.0779C12.2381 10.3079 12.2621 10.5559 12.3101 11.0513L12.3541 11.5026C12.5227 13.2473 12.6074 14.1193 12.0967 14.5066C11.5861 14.8946 10.8181 14.5406 9.28341 13.8339L8.88541 13.6513C8.44941 13.4499 8.23141 13.3499 8.00007 13.3499C7.76874 13.3499 7.55074 13.4499 7.11474 13.6513L6.71741 13.8339C5.18208 14.5406 4.41408 14.8939 3.90408 14.5073C3.39274 14.1193 3.47741 13.2473 3.64608 11.5026L3.69008 11.0519C3.73808 10.5559 3.76208 10.3079 3.69008 10.0786C3.61941 9.84859 3.46008 9.66259 3.14274 9.29192L2.85341 8.95325C1.73541 7.64659 1.17674 6.99259 1.37141 6.36525C1.56674 5.73792 2.38674 5.55192 4.02674 5.18125L4.45074 5.08525C4.91674 4.97992 5.14941 4.92725 5.33674 4.78525C5.52341 4.64325 5.64341 4.42792 5.88341 3.99725L6.10208 3.60525Z" fill="#FF6543"/>
</svg>
