<svg width="61" height="60" viewBox="0 0 61 60" fill="none" xmlns="http://www.w3.org/2000/svg">
<path d="M30.3509 22.4249C30.1777 22.2407 29.9688 22.0929 29.7367 21.9904C29.5046 21.888 29.254 21.8329 28.9999 21.8284C28.7459 21.824 28.4935 21.8703 28.2579 21.9646C28.0223 22.0589 27.8082 22.1993 27.6286 22.3773C27.4489 22.5553 27.3072 22.7674 27.2121 23.0009C27.1169 23.2344 27.0702 23.4844 27.0746 23.7362C27.0791 23.988 27.1347 24.2362 27.2381 24.4662C27.3416 24.6962 27.4907 24.9032 27.6766 25.0749L30.1238 27.4999L27.6766 29.9249C27.4907 30.0966 27.3416 30.3036 27.2381 30.5336C27.1347 30.7635 27.0791 31.0118 27.0746 31.2636C27.0702 31.5153 27.1169 31.7654 27.2121 31.9989C27.3072 32.2324 27.4489 32.4444 27.6286 32.6225C27.8082 32.8005 28.0223 32.9409 28.2579 33.0352C28.4935 33.1295 28.7459 33.1758 28.9999 33.1714C29.254 33.1669 29.5046 33.1118 29.7367 33.0093C29.9688 32.9069 30.1777 32.7591 30.3509 32.5749L32.7981 30.1499L35.2454 32.5749C35.4186 32.7591 35.6275 32.9069 35.8596 33.0093C36.0917 33.1118 36.3423 33.1669 36.5964 33.1714C36.8504 33.1758 37.1028 33.1295 37.3384 33.0352C37.574 32.9409 37.7881 32.8005 37.9677 32.6225C38.1474 32.4444 38.2891 32.2324 38.3842 31.9989C38.4794 31.7654 38.5261 31.5153 38.5217 31.2636C38.5172 31.0118 38.4616 30.7635 38.3581 30.5336C38.2547 30.3036 38.1056 30.0966 37.9197 29.9249L35.4725 27.4999L37.9197 25.0749C38.1056 24.9032 38.2547 24.6962 38.3581 24.4662C38.4616 24.2362 38.5172 23.988 38.5217 23.7362C38.5261 23.4844 38.4794 23.2344 38.3842 23.0009C38.2891 22.7674 38.1474 22.5553 37.9677 22.3773C37.7881 22.1993 37.574 22.0589 37.3384 21.9646C37.1028 21.8703 36.8504 21.824 36.5964 21.8284C36.3423 21.8329 36.0917 21.888 35.8596 21.9904C35.6275 22.0929 35.4186 22.2407 35.2454 22.4249L32.7981 24.8499L30.3509 22.4249Z" fill="#272727"/>
<path fill-rule="evenodd" clip-rule="evenodd" d="M3.26213 6.87737C3.42848 6.40832 3.77602 6.02394 4.22832 5.80875C4.68062 5.59356 5.20065 5.56519 5.67406 5.72987L6.43346 5.99487C7.99011 6.53737 9.30961 6.99737 10.3516 7.50237C11.4617 8.04487 12.4153 8.70987 13.1319 9.74987C13.8433 10.7799 14.1385 11.9124 14.2722 13.1549L14.3 13.4249H43.1926C45.2589 13.4249 47.363 13.4249 49.0963 13.6174C49.9793 13.7149 50.8548 13.8699 51.6268 14.1399C52.3837 14.4024 53.2188 14.8349 53.8117 15.5999C54.7754 16.8399 54.9445 18.2849 54.8536 19.7499C54.7653 21.1449 54.4172 22.8799 54.0009 24.9424L53.9757 25.0749L53.9706 25.0849L52.689 31.2599C52.3105 33.0749 51.9926 34.6024 51.5814 35.8099C51.1475 37.0849 50.547 38.2099 49.4697 39.0799C48.3924 39.9474 47.1587 40.3049 45.8089 40.4699C44.5348 40.6249 42.958 40.6249 41.091 40.6249H27.4495C24.0562 40.6249 21.3062 40.6249 19.1415 40.3199C16.8784 40.0024 14.9786 39.3199 13.4825 37.7549C12.1025 36.3149 11.3658 34.7849 10.9975 32.6499C10.6518 30.6499 10.619 28.0299 10.619 24.3999V17.5949C10.619 15.7449 10.614 14.5074 10.5105 13.5574C10.4096 12.6499 10.2355 12.1949 10.0059 11.8649C9.78645 11.5424 9.45089 11.2399 8.68392 10.8699C7.86901 10.4749 6.76145 10.0849 5.07612 9.49737L4.42016 9.26987C4.18526 9.18851 3.96886 9.06205 3.78335 8.89771C3.59784 8.73337 3.44687 8.53439 3.33907 8.31216C3.23127 8.08992 3.16876 7.84881 3.15513 7.6026C3.14149 7.3564 3.17952 7.10995 3.26213 6.87737ZM14.4009 17.1749V24.3999C14.4009 28.1224 14.4463 30.3949 14.7289 32.0174C14.9837 33.5049 15.4202 34.3299 16.2275 35.1749C16.9163 35.8949 17.8674 36.3549 19.6713 36.6074C21.5383 36.8699 24.0208 36.8749 27.5933 36.8749H40.975C42.9908 36.8749 44.3305 36.8724 45.3497 36.7499C46.3135 36.6324 46.7626 36.4274 47.078 36.1724C47.3933 35.9174 47.6835 35.5224 47.9963 34.6099C48.3243 33.6474 48.5968 32.3474 49.0055 30.3899L50.2619 24.3399V24.3349C50.711 22.1099 51.0062 20.6299 51.0743 19.5199C51.1399 18.4674 50.9734 18.0974 50.8195 17.8949C50.6847 17.7968 50.5336 17.7232 50.3729 17.6774C49.8216 17.5053 49.2532 17.393 48.6775 17.3424C47.1764 17.1774 45.2741 17.1749 43.1144 17.1749H14.4009ZM13.2454 48.7499C13.2454 50.2417 13.8435 51.6725 14.908 52.7273C15.9726 53.7822 17.4165 54.3749 18.922 54.3749C20.4275 54.3749 21.8714 53.7822 22.936 52.7273C24.0005 51.6725 24.5986 50.2417 24.5986 48.7499C24.5986 47.258 24.0005 45.8273 22.936 44.7724C21.8714 43.7175 20.4275 43.1249 18.922 43.1249C17.4165 43.1249 15.9726 43.7175 14.908 44.7724C13.8435 45.8273 13.2454 47.258 13.2454 48.7499ZM18.922 50.6249C18.4202 50.6249 17.9389 50.4273 17.584 50.0757C17.2292 49.7241 17.0298 49.2471 17.0298 48.7499C17.0298 48.2526 17.2292 47.7757 17.584 47.424C17.9389 47.0724 18.4202 46.8749 18.922 46.8749C19.4238 46.8749 19.9051 47.0724 20.26 47.424C20.6148 47.7757 20.8142 48.2526 20.8142 48.7499C20.8142 49.2471 20.6148 49.7241 20.26 50.0757C19.9051 50.4273 19.4238 50.6249 18.922 50.6249ZM35.9518 48.7499C35.9518 49.4886 36.0986 50.22 36.3839 50.9025C36.6692 51.5849 37.0873 52.205 37.6145 52.7273C38.1416 53.2497 38.7674 53.664 39.4561 53.9467C40.1448 54.2294 40.883 54.3749 41.6284 54.3749C42.3739 54.3749 43.112 54.2294 43.8008 53.9467C44.4895 53.664 45.1153 53.2497 45.6424 52.7273C46.1695 52.205 46.5876 51.5849 46.8729 50.9025C47.1582 50.22 47.305 49.4886 47.305 48.7499C47.305 47.258 46.707 45.8273 45.6424 44.7724C44.5778 43.7175 43.1339 43.1249 41.6284 43.1249C40.1229 43.1249 38.679 43.7175 37.6145 44.7724C36.5499 45.8273 35.9518 47.258 35.9518 48.7499ZM41.6284 50.6249C41.1266 50.6249 40.6453 50.4273 40.2904 50.0757C39.9356 49.7241 39.7362 49.2471 39.7362 48.7499C39.7362 48.2526 39.9356 47.7757 40.2904 47.424C40.6453 47.0724 41.1266 46.8749 41.6284 46.8749C42.1303 46.8749 42.6116 47.0724 42.9664 47.424C43.3213 47.7757 43.5206 48.2526 43.5206 48.7499C43.5206 49.2471 43.3213 49.7241 42.9664 50.0757C42.6116 50.4273 42.1303 50.6249 41.6284 50.6249Z" fill="#272727"/>
</svg>
