<svg width="40" height="40" viewBox="0 0 40 40" fill="none" xmlns="http://www.w3.org/2000/svg">
<path fill-rule="evenodd" clip-rule="evenodd" d="M14.1864 7.38328C14.4382 7.16794 14.7652 7.06137 15.0956 7.087C15.4259 7.11263 15.7325 7.26835 15.9481 7.51995L25.9481 19.1866C26.1422 19.4131 26.2489 19.7016 26.2489 20C26.2489 20.2983 26.1422 20.5868 25.9481 20.8133L15.9481 32.48C15.729 32.7193 15.4254 32.864 15.1015 32.8835C14.7776 32.903 14.4588 32.7958 14.2125 32.5846C13.9662 32.3734 13.8117 32.0746 13.7816 31.7515C13.7516 31.4284 13.8483 31.1063 14.0514 30.8533L23.3531 20L14.0514 9.14662C13.8357 8.89524 13.7286 8.56851 13.7536 8.23819C13.7786 7.90788 13.9337 7.60099 14.1848 7.38495" fill="#BDBDBD"/>
</svg>
