<svg width="54" height="54" viewBox="0 0 54 54" fill="none" xmlns="http://www.w3.org/2000/svg">
<rect width="54" height="54" rx="10" fill="#FF6543"/>
<g clip-path="url(#clip0_2_2044)">
<path fill-rule="evenodd" clip-rule="evenodd" d="M26.625 20.0625C25.7632 20.0625 24.9098 20.2322 24.1136 20.562C23.3174 20.8918 22.594 21.3752 21.9846 21.9846C21.3752 22.594 20.8918 23.3174 20.562 24.1136C20.2322 24.9098 20.0625 25.7632 20.0625 26.625C20.0625 27.4868 20.2322 28.3402 20.562 29.1364C20.8918 29.9326 21.3752 30.656 21.9846 31.2654C22.594 31.8748 23.3174 32.3582 24.1136 32.688C24.9098 33.0178 25.7632 33.1875 26.625 33.1875C28.3655 33.1875 30.0347 32.4961 31.2654 31.2654C32.4961 30.0347 33.1875 28.3655 33.1875 26.625C33.1875 24.8845 32.4961 23.2153 31.2654 21.9846C30.0347 20.7539 28.3655 20.0625 26.625 20.0625ZM18.9375 26.625C18.9375 22.38 22.38 18.9375 26.625 18.9375C30.87 18.9375 34.3125 22.38 34.3125 26.625C34.3125 28.545 33.6083 30.3015 32.4443 31.6485L34.8975 34.1025C34.9528 34.154 34.9971 34.2161 35.0278 34.2851C35.0586 34.3541 35.0751 34.4286 35.0764 34.5041C35.0778 34.5796 35.0639 34.6547 35.0356 34.7247C35.0073 34.7947 34.9652 34.8584 34.9118 34.9118C34.8584 34.9652 34.7947 35.0073 34.7247 35.0356C34.6547 35.0639 34.5796 35.0778 34.5041 35.0764C34.4286 35.0751 34.3541 35.0586 34.2851 35.0278C34.2161 34.9971 34.154 34.9528 34.1025 34.8975L31.6485 32.4443C30.2537 33.6518 28.4699 34.3152 26.625 34.3125C22.38 34.3125 18.9375 30.87 18.9375 26.625Z" fill="white"/>
</g>
<defs>
<clipPath id="clip0_2_2044">
<rect width="18" height="18" fill="white" transform="translate(18 18)"/>
</clipPath>
</defs>
</svg>
