<svg width="16" height="16" viewBox="0 0 16 16" fill="none" xmlns="http://www.w3.org/2000/svg">
<path d="M6.10183 3.60531C6.9465 2.09065 7.3685 1.33331 7.99983 1.33331C8.63116 1.33331 9.05316 2.09065 9.89783 3.60531L10.1165 3.99731C10.3565 4.42798 10.4765 4.64331 10.6632 4.78531C10.8498 4.92731 11.0832 4.97998 11.5498 5.08531L11.9738 5.18131C13.6138 5.55265 14.4332 5.73798 14.6285 6.36531C14.8232 6.99198 14.2645 7.64598 13.1465 8.95331L12.8572 9.29131C12.5398 9.66265 12.3805 9.84865 12.3092 10.078C12.2378 10.308 12.2618 10.556 12.3098 11.0513L12.3538 11.5026C12.5225 13.2473 12.6072 14.1193 12.0965 14.5066C11.5858 14.8946 10.8178 14.5406 9.28316 13.834L8.88516 13.6513C8.44916 13.45 8.23116 13.35 7.99983 13.35C7.7685 13.35 7.5505 13.45 7.1145 13.6513L6.71716 13.834C5.18183 14.5406 4.41383 14.894 3.90383 14.5073C3.3925 14.1193 3.47716 13.2473 3.64583 11.5026L3.68983 11.052C3.73783 10.556 3.76183 10.308 3.68983 10.0786C3.61916 9.84865 3.45983 9.66265 3.1425 9.29198L2.85316 8.95331C1.73516 7.64665 1.1765 6.99265 1.37116 6.36531C1.5665 5.73798 2.3865 5.55198 4.0265 5.18131L4.4505 5.08531C4.9165 4.97998 5.14916 4.92731 5.3365 4.78531C5.52316 4.64331 5.64316 4.42798 5.88316 3.99731L6.10183 3.60531Z" fill="#FF6543"/>
</svg>
