<svg width="27" height="27" viewBox="0 0 27 27" fill="none" xmlns="http://www.w3.org/2000/svg">
<path fill-rule="evenodd" clip-rule="evenodd" d="M13.5 1.40625C12.0828 1.40625 10.7235 1.96925 9.7214 2.9714C8.71925 3.97355 8.15625 5.33275 8.15625 6.75C8.15625 8.16725 8.71925 9.52645 9.7214 10.5286C10.7235 11.5307 12.0828 12.0937 13.5 12.0937C14.9173 12.0937 16.2765 11.5307 17.2786 10.5286C18.2808 9.52645 18.8438 8.16725 18.8438 6.75C18.8438 5.33275 18.2808 3.97355 17.2786 2.9714C16.2765 1.96925 14.9173 1.40625 13.5 1.40625ZM9.84375 6.75C9.84375 5.7803 10.229 4.85032 10.9146 4.16464C11.6003 3.47896 12.5303 3.09375 13.5 3.09375C14.4697 3.09375 15.3997 3.47896 16.0854 4.16464C16.771 4.85032 17.1563 5.7803 17.1563 6.75C17.1563 7.7197 16.771 8.64968 16.0854 9.33536C15.3997 10.021 14.4697 10.4062 13.5 10.4062C12.5303 10.4062 11.6003 10.021 10.9146 9.33536C10.229 8.64968 9.84375 7.7197 9.84375 6.75ZM13.5 13.7812C10.8979 13.7812 8.49938 14.373 6.723 15.372C4.9725 16.3575 3.65625 17.8492 3.65625 19.6875V19.8022C3.65513 21.1095 3.654 22.7497 5.09288 23.922C5.8005 24.498 6.79163 24.9086 8.13038 25.1786C9.47138 25.4509 11.2208 25.5937 13.5 25.5937C15.7793 25.5937 17.5275 25.4509 18.8708 25.1786C20.2095 24.9086 21.1995 24.498 21.9083 23.922C23.3471 22.7497 23.3449 21.1095 23.3438 19.8022V19.6875C23.3438 17.8492 22.0275 16.3575 20.2781 15.372C18.5006 14.373 16.1033 13.7812 13.5 13.7812ZM5.34375 19.6875C5.34375 18.7301 6.0435 17.6906 7.54988 16.8435C9.03038 16.011 11.1319 15.4687 13.5011 15.4687C15.8681 15.4687 17.9696 16.011 19.4501 16.8435C20.9576 17.6906 21.6562 18.7301 21.6562 19.6875C21.6562 21.159 21.6112 21.987 20.8417 22.6125C20.4255 22.9522 19.728 23.2841 18.5355 23.5249C17.3464 23.7656 15.7208 23.9062 13.5 23.9062C11.2793 23.9062 9.6525 23.7656 8.4645 23.5249C7.272 23.2841 6.5745 22.9522 6.15825 22.6136C5.38875 21.987 5.34375 21.159 5.34375 19.6875Z" fill="#272727"/>
</svg>
